<?xml version="1.0" standalone="no"?>
<!DOCTYPE svg PUBLIC "-//W3C//DTD SVG 20010904//EN"
 "http://www.w3.org/TR/2001/REC-SVG-20010904/DTD/svg10.dtd">
<svg version="1.0" xmlns="http://www.w3.org/2000/svg"
 width="225.000000pt" height="225.000000pt" viewBox="0 0 225.000000 225.000000"
 preserveAspectRatio="xMidYMid meet">

<g transform="translate(0.000000,225.000000) scale(0.100000,-0.100000)"
fill="#000000" stroke="none">
<path d="M516 1719 c-56 -44 -56 -44 -56 -481 0 -364 2 -406 18 -438 33 -67
50 -70 389 -70 166 0 308 3 317 6 9 3 16 16 16 29 0 13 -7 26 -16 29 -9 3
-152 6 -318 6 -362 0 -336 -10 -336 131 l0 94 95 95 95 95 100 -100 99 -99
-50 -53 c-33 -35 -49 -59 -45 -69 3 -9 6 -18 6 -20 0 -2 10 -4 22 -4 16 0 92
69 260 237 l238 237 129 -128 c93 -92 135 -127 146 -122 9 3 19 6 21 6 2 0 4
10 4 23 0 33 -244 274 -287 283 -36 7 -13 26 -273 -225 l-125 -121 -105 105
c-137 137 -142 137 -252 28 l-78 -78 0 267 c0 264 0 267 22 282 20 14 91 16
573 16 482 0 553 -2 573 -16 22 -15 22 -16 22 -323 0 -269 2 -310 16 -322 11
-9 20 -10 32 -2 15 9 17 43 20 314 3 328 1 341 -50 384 l-30 25 -582 0 c-576
0 -584 0 -610 -21z"/>
<path d="M875 1596 c-45 -20 -67 -50 -72 -98 -11 -114 124 -179 205 -98 39 39
47 81 23 134 -13 30 -29 48 -54 59 -42 20 -62 21 -102 3z m87 -73 c50 -45 -11
-116 -73 -83 -25 14 -26 75 -1 89 25 15 53 13 74 -6z"/>
<path d="M1422 997 c-99 -52 -146 -125 -146 -232 0 -145 96 -244 244 -253 76
-5 135 17 189 70 55 54 76 104 75 183 0 80 -21 130 -76 184 -72 72 -199 93
-286 48z m160 -47 c144 -40 184 -235 69 -333 -30 -25 -87 -47 -121 -47 -34 0
-91 22 -120 47 -114 96 -83 279 56 328 48 17 68 18 116 5z"/>
<path d="M1464 839 c-34 -33 -54 -60 -54 -74 0 -33 29 -40 62 -15 l28 21 0
-60 c0 -61 12 -77 45 -65 11 5 15 22 15 65 l0 60 28 -21 c33 -25 62 -18 62 15
0 23 -98 125 -120 125 -6 0 -36 -23 -66 -51z"/>
</g>
</svg>
